<svg id="Layer_1" data-name="Layer 1" xmlns="http://www.w3.org/2000/svg" viewBox="0 0 145 145"><defs><style>.cls-1{fill:#e1b724;}.cls-1,.cls-2,.cls-3{stroke:#fff;stroke-miterlimit:10;}.cls-2,.cls-3{fill:none;stroke-width:2px;}.cls-2{stroke-linecap:round;}</style></defs><title>SWG-YELLOW</title><circle class="cls-1" cx="72.5" cy="72.5" r="72"/><polyline class="cls-2" points="18.43 86.07 18.41 92.72 20.68 95.07 29.68 95.07 31.93 92.82 31.93 83.82 18.44 61.34 18.44 52.32 20.68 50.08 29.68 50.08 31.93 52.33 31.93 59.07"/><line class="cls-2" x1="63.61" y1="95.02" x2="61.36" y2="50.02"/><line class="cls-2" x1="74.86" y1="74.77" x2="63.61" y2="95.02"/><line class="cls-2" x1="81.61" y1="95.02" x2="70.36" y2="74.77"/><line class="cls-2" x1="83.85" y1="50.02" x2="81.61" y2="95.02"/><path class="cls-2" d="M76.62,76.72" transform="translate(-4.1 -4.1)"/><polyline class="cls-2" points="120.13 77.97 129.13 77.97 129.13 93.72 126.88 95.97 113.38 95.97 111.13 93.72 111.12 53.23 113.36 50.98 126.81 50.98 129.06 53.23 129.06 57.58"/><line class="cls-3" x1="96.5" y1="140.4" x2="96.5" y2="4.6"/><line class="cls-3" x1="48.5" y1="140.4" x2="48.5" y2="4.6"/></svg>